HIERARCHY
ROOT Hips
{
	OFFSET 0.00000 0.00000 0.00000
	CHANNELS 6 Xposition Yposition Zposition Zrotation Yrotation Xrotation 
	JOINT RightUpLegDummy
	{
		OFFSET 0 0 0
		CHANNELS 3 Zrotation Yrotation Xrotation
		JOINT RightUpLeg
		{
			OFFSET -3.52197 -3.41223 0.04002
			CHANNELS 3 Zrotation Yrotation Xrotation
			JOINT RightLeg
			{
				OFFSET 0.00006 -17.42390 1.60435
				CHANNELS 3 Zrotation Yrotation Xrotation
				JOINT RightFoot
				{
					OFFSET 0.06153 -16.50078 -1.63901
					CHANNELS 3 Zrotation Yrotation Xrotation
					JOINT RightToes
					{
						OFFSET 0.00298 -1.73825 3.34613
						CHANNELS 3 Zrotation Yrotation Xrotation
						End Site
						{
							OFFSET 0.00480 -0.05416 3.85043
						}
					}
				}
			}
		}
	}
	JOINT SpineDummy
	{
		OFFSET 0 0 0
		CHANNELS 3 Zrotation Yrotation Xrotation
		JOINT Spine
		{
			OFFSET 0.00000 4.68130 0.00000
			CHANNELS 3 Zrotation Yrotation Xrotation
			JOINT Spine1
			{
				OFFSET -0.00000 10.10138 0.05002
				CHANNELS 3 Zrotation Yrotation Xrotation
				JOINT HEadDummy
				{
					OFFSET 0 0 0
					CHANNELS 3 Zrotation Yrotation Xrotation
					JOINT Head
					{
						OFFSET -0.00000 3.43865 0.00438
						CHANNELS 3 Zrotation Yrotation Xrotation
						End Site
						{
							OFFSET -0.11417 5.02924 0.98962
						}
					}
				}
				JOINT LeftShoulder1Dummy
				{
					OFFSET 0 0 0
					CHANNELS 3 Zrotation Yrotation Xrotation
					JOINT LeftShoulder1
					{
						OFFSET 3.53937 -0.14262 -0.08662
						CHANNELS 3 Zrotation Yrotation Xrotation
						JOINT LeftArm
						{
							OFFSET 4.04833 -0.00133 0.12681
							CHANNELS 3 Zrotation Yrotation Xrotation
							JOINT LeftForeArm
							{
								OFFSET 10.33880 -0.01036 -0.55515
								CHANNELS 3 Zrotation Yrotation Xrotation
								JOINT LeftHand
								{
									OFFSET 8.69677 0.07543 0.40060
									CHANNELS 3 Zrotation Yrotation Xrotation
									End Site
									{
										OFFSET 5.28377 -0.21905 0.59205
									}
								}
							}
						}
					}
				}
				JOINT RightShoulderDummy
				{
					OFFSET 0 0 0
					CHANNELS 3 Zrotation Yrotation Xrotation
					JOINT RightShoulder
					{
						OFFSET -3.53937 -0.14262 -0.08660
						CHANNELS 3 Zrotation Yrotation Xrotation
						JOINT RightArm
						{
							OFFSET -4.04833 -0.00133 0.12683
							CHANNELS 3 Zrotation Yrotation Xrotation
							JOINT RightForeArm
							{
								OFFSET -10.37987 -0.01039 -0.55511
								CHANNELS 3 Zrotation Yrotation Xrotation
								JOINT RightHand
								{
									OFFSET -8.67398 0.07538 0.40058
									CHANNELS 3 Zrotation Yrotation Xrotation
									End Site
									{
										OFFSET -5.24810 -0.21916 0.59204
									}
								}
							}
						}
					}
				}
			}
		}
	}
	JOINT LeftUpLegDummy
	{
		OFFSET 0 0 0
		CHANNELS 3 Zrotation Yrotation Xrotation
		JOINT LeftUpLeg
		{
			OFFSET 3.52197 -3.41223 0.04002
			CHANNELS 3 Zrotation Yrotation Xrotation
			JOINT LeftLeg
			{
				OFFSET -0.00012 -17.42399 1.60337
				CHANNELS 3 Zrotation Yrotation Xrotation
				JOINT LeftFoot
				{
					OFFSET -0.09972 -16.50070 -1.63802
					CHANNELS 3 Zrotation Yrotation Xrotation
					JOINT LeftToes
					{
						OFFSET -0.01575 -1.73823 3.34611
						CHANNELS 3 Zrotation Yrotation Xrotation
						End Site
						{
							OFFSET 0.03150 -0.01868 3.85031
						}
					}
				}
			}
		}
	}
}
MOTION
Frames: 14
Frame Time: 0.033333
-9.0183 39.2356 74.4595 -176.7340 36.5932 -178.6830 0.0000 0.0000 0.0000 -5.6403 -3.3359 -11.4532 -1.3501 1.7125 6.8154 7.4270 -0.7278 -0.1522 0.0000 -0.0000 -0.0000 0.0000 0.0000 0.0000 -0.1296 -0.1425 6.4511 5.2771 -0.9238 -4.6716 -0.0000 0.0000 -0.0000 -0.3070 12.0579 -2.6895 -0.0000 0.0000 -0.0000 -33.3530 -2.4143 2.3305 -38.5299 -19.4216 -21.0411 -8.5074 5.0487 51.4827 14.7405 -2.8579 -1.0254 -0.0000 0.0000 -0.0000 35.6103 5.2807 3.6583 40.1948 -3.2390 -19.8968 9.9078 2.0542 19.4853 -11.6871 1.1847 -0.6517 0.0000 0.0000 0.0000 12.8525 8.3250 6.0312 -5.0300 -17.4593 10.6039 -6.6903 -0.0431 -13.4508 0.0000 0.0000 -0.0000
-7.8720 39.1305 74.5805 -176.2330 36.8234 -179.4040 0.0000 0.0000 0.0000 -4.0777 -1.8682 -11.0980 -1.1887 0.7758 10.0494 7.2851 -0.7378 0.2093 0.0000 -0.0000 -0.0000 0.0000 0.0000 0.0000 0.7695 0.0124 6.7357 4.6980 -0.6896 -4.2946 -0.0000 0.0000 -0.0000 -0.4898 12.6709 -2.3681 -0.0000 0.0000 -0.0000 -33.7501 -2.4263 2.3590 -37.9793 -18.6244 -22.1480 -7.9087 5.0151 52.7531 15.2231 -2.5415 -1.0206 -0.0000 0.0000 -0.0000 35.7074 5.2955 3.6732 39.9166 -2.5779 -19.3736 10.1193 1.4055 19.8769 -11.7214 0.6791 -0.6062 0.0000 0.0000 0.0000 15.1225 8.6841 6.7515 -5.5533 -17.4106 13.4005 -7.7834 -0.0379 -13.0504 0.0000 0.0000 -0.0000
-6.7854 39.0331 74.7061 -175.9290 37.4335 179.7720 0.0000 0.0000 0.0000 -2.5390 -0.6748 -10.9759 -0.7803 0.8076 13.4912 6.2112 -0.5427 -1.4937 0.0000 -0.0000 -0.0000 0.0000 0.0000 0.0000 1.5059 0.2127 6.9608 4.1089 -0.4046 -3.8142 -0.0000 0.0000 -0.0000 -0.3975 13.4324 -1.8447 -0.0000 0.0000 -0.0000 -33.7789 -2.4512 2.3706 -38.3084 -17.4454 -22.8634 -7.4623 5.0004 53.3508 15.7071 -2.2376 -1.0155 -0.0000 0.0000 -0.0000 35.5705 5.2739 3.6519 39.6355 -1.2195 -19.1178 10.1457 0.1426 21.2681 -11.8951 0.2627 -0.5759 0.0000 0.0000 0.0000 16.8726 7.8999 6.4752 -6.1376 -15.1788 17.8821 -9.9742 0.0404 -11.7281 0.0000 0.0000 -0.0000
-5.8042 38.9174 74.8402 -176.2290 37.9101 178.7100 0.0000 0.0000 0.0000 -1.5231 -0.5696 -10.9611 -0.3156 1.1499 16.8516 5.2146 -0.3530 -3.9014 0.0000 -0.0000 -0.0000 0.0000 0.0000 0.0000 1.7812 0.3197 7.3481 3.5175 -0.1991 -3.5898 -0.0000 0.0000 -0.0000 -0.1327 13.8416 -1.0968 -0.0000 0.0000 -0.0000 -33.5090 -2.4695 2.3616 -39.2823 -15.9849 -22.9213 -7.4616 5.0113 53.0065 15.2406 -2.4972 -1.0160 -0.0000 0.0000 -0.0000 35.2668 5.2211 3.6030 39.4551 0.2429 -18.8516 10.1323 -0.7908 22.8048 -12.0136 0.1725 -0.5730 0.0000 0.0000 0.0000 17.3842 6.1663 4.6660 -5.7117 -10.6734 24.2262 -11.9884 0.3038 -8.9612 0.0000 0.0000 -0.0000
-4.9355 38.8050 74.9587 -176.8350 38.2668 177.4960 0.0000 0.0000 0.0000 -0.9283 -1.3581 -10.6182 0.4106 2.0473 19.4884 4.4133 -0.2382 -5.7152 0.0000 -0.0000 -0.0000 0.0000 0.0000 0.0000 2.1749 0.4242 8.1017 2.6036 0.0761 -3.7010 -0.0000 0.0000 -0.0000 -0.0085 14.0602 -0.5442 -0.0000 0.0000 -0.0000 -33.4555 -2.4842 2.3642 -40.1631 -14.6634 -22.5198 -7.8422 5.0368 52.0811 13.8644 -3.2970 -1.0114 -0.0000 0.0000 -0.0000 35.0759 5.1798 3.5690 39.0788 1.2299 -18.1038 10.3625 -0.5234 23.1022 -12.1112 0.3088 -0.5909 0.0000 0.0000 0.0000 16.8431 4.0382 1.7758 -3.2847 -4.8098 31.7622 -11.4048 0.6686 -4.8229 0.0000 0.0000 -0.0000
-4.1496 38.7275 75.0348 -177.2500 39.0343 176.3470 0.0000 0.0000 0.0000 -0.2911 -1.9925 -9.8312 1.3571 3.2986 21.2181 3.0517 -0.1442 -6.9070 0.0000 -0.0000 -0.0000 0.0000 0.0000 0.0000 3.2544 0.7469 9.0708 1.2108 0.6666 -3.8113 -0.0000 0.0000 -0.0000 -0.1551 14.2221 -0.5818 -0.0000 0.0000 -0.0000 -33.8199 -2.4909 2.3888 -40.7675 -13.6541 -21.9724 -8.3527 5.0767 50.6215 12.7343 -4.0717 -1.0060 -0.0000 0.0000 -0.0000 35.0772 5.1694 3.5649 38.3209 1.8095 -16.9618 10.7994 0.7852 22.2311 -12.3575 0.4368 -0.6158 0.0000 0.0000 0.0000 15.8888 2.3960 -1.2125 0.4213 0.0501 39.3867 -7.9801 0.7268 -1.0205 0.0000 0.0000 -0.0000
-3.4106 38.6918 75.0720 -177.5330 40.4677 175.3110 0.0000 0.0000 0.0000 0.5158 -1.9287 -8.8135 2.0718 4.3426 22.2841 1.1746 -0.0649 -7.8350 0.0000 -0.0000 -0.0000 0.0000 0.0000 0.0000 4.6276 1.3196 9.9103 -0.2726 1.5398 -3.6239 -0.0000 0.0000 -0.0000 -0.4325 14.1879 -1.0869 -0.0000 0.0000 -0.0000 -34.3143 -2.4698 2.4103 -41.5309 -12.7241 -21.3291 -8.8868 5.1353 48.4574 12.4538 -4.5257 -1.0280 -0.0000 0.0000 -0.0000 35.0370 5.1592 3.5571 37.4067 2.5325 -15.9209 11.1479 2.2101 21.6042 -12.7208 0.5093 -0.6415 0.0000 0.0000 0.0000 14.6841 1.6675 -3.8366 3.3616 2.3515 45.9993 -4.1642 0.4326 0.4065 0.0000 0.0000 -0.0000
-2.6995 38.6767 75.0884 -178.0650 42.1575 174.2800 0.0000 0.0000 0.0000 1.1976 -1.5138 -7.8193 2.4190 5.0517 23.0786 -0.5443 -0.0185 -8.5959 0.0000 -0.0000 -0.0000 0.0000 0.0000 0.0000 5.5068 1.9129 10.4686 -1.3305 2.3680 -3.2477 -0.0000 0.0000 -0.0000 -0.6332 14.0238 -1.5861 -0.0000 0.0000 -0.0000 -34.6476 -2.4252 2.4125 -42.6751 -11.7476 -20.5325 -9.4474 5.2015 45.8988 12.4899 -4.7419 -1.0527 -0.0000 0.0000 -0.0000 34.7603 5.1160 3.5152 36.6541 3.7050 -15.1566 11.3023 3.1218 22.0295 -13.0481 0.6397 -0.6720 0.0000 0.0000 0.0000 12.9405 1.2011 -6.3285 4.4760 2.6583 50.9246 -1.9068 0.1838 -0.5393 0.0000 0.0000 -0.0000
-2.0099 38.6560 75.0898 -178.8440 43.5157 173.2810 0.0000 0.0000 0.0000 1.6255 -1.1511 -6.9758 2.6424 5.5459 23.8850 -1.9504 -0.0005 -9.3361 0.0000 -0.0000 -0.0000 0.0000 0.0000 0.0000 5.7476 2.2662 10.8530 -1.8840 2.8578 -3.0276 -0.0000 0.0000 -0.0000 -0.6617 13.9240 -1.7236 -0.0000 0.0000 -0.0000 -34.7466 -2.3943 2.4058 -43.9363 -11.0033 -19.8242 -9.8950 5.2548 43.7135 12.4663 -4.6833 -1.0447 -0.0000 0.0000 -0.0000 34.4121 5.0609 3.4624 36.0783 5.0501 -14.4681 11.3959 3.6893 22.8126 -13.3199 0.8279 -0.7065 0.0000 0.0000 0.0000 10.6586 -0.0088 -8.9540 4.3676 2.2631 53.9438 -0.9681 0.0902 -2.1269 0.0000 0.0000 -0.0000
-1.3251 38.6380 75.0748 -179.4870 44.4203 172.5560 0.0000 0.0000 0.0000 2.0603 -0.8885 -6.1968 2.8504 5.8757 24.5297 -3.1999 -0.0054 -10.1858 0.0000 -0.0000 -0.0000 0.0000 0.0000 0.0000 5.7373 2.3545 11.1237 -2.1419 3.0139 -3.1047 -0.0000 0.0000 -0.0000 -0.5604 13.7803 -1.4492 -0.0000 0.0000 -0.0000 -34.6262 -2.3963 2.3994 -44.9717 -10.8050 -19.6292 -9.9987 5.2838 42.5290 12.7732 -4.3162 -1.0337 -0.0000 0.0000 -0.0000 34.3159 5.0448 3.4476 35.5087 6.0987 -13.6656 11.5164 4.4057 22.7426 -13.4779 0.9768 -0.7312 0.0000 0.0000 0.0000 8.3340 -2.1800 -11.6114 4.2453 2.0922 54.9487 -0.1078 0.0265 -3.1435 0.0000 0.0000 -0.0000
-0.6337 38.6468 75.0510 -179.8940 45.2542 172.1680 0.0000 0.0000 0.0000 2.6445 -0.6192 -5.3456 3.0265 6.1729 24.7003 -4.2194 -0.0253 -10.9391 0.0000 -0.0000 -0.0000 0.0000 0.0000 0.0000 5.6446 2.3939 11.1989 -2.1744 3.0691 -3.2826 -0.0000 0.0000 -0.0000 -0.4335 13.4352 -0.9494 -0.0000 0.0000 -0.0000 -34.4143 -2.4091 2.3919 -45.5382 -11.1230 -19.9917 -9.7358 5.2868 42.5245 13.4209 -3.9613 -1.0504 -0.0000 0.0000 -0.0000 34.5102 5.0772 3.4776 34.9692 6.7268 -12.7355 11.5860 5.4433 21.3969 -13.3177 1.1088 -0.7366 0.0000 0.0000 0.0000 6.3867 -4.5876 -13.9940 4.8571 2.5672 53.8305 0.9902 -0.0427 -3.7783 0.0000 0.0000 -0.0000
0.0542 38.6902 75.0292 179.6470 46.4108 171.8360 0.0000 0.0000 0.0000 3.1912 -0.3598 -4.3344 3.2731 6.7505 24.3509 -5.1430 -0.0402 -11.3116 0.0000 -0.0000 -0.0000 0.0000 0.0000 0.0000 5.3280 2.5837 11.0612 -1.9212 3.2170 -3.2625 -0.0000 0.0000 -0.0000 -0.3837 13.0604 -0.4808 -0.0000 0.0000 -0.0000 -34.3506 -2.4199 2.3924 -45.4693 -11.7054 -20.3892 -9.4159 5.2667 43.4547 13.5640 -3.9630 -1.0620 -0.0000 0.0000 -0.0000 34.7136 5.1141 3.5103 34.7186 7.2054 -11.8197 11.5455 6.5169 19.3752 -12.8797 1.2880 -0.7304 0.0000 0.0000 0.0000 4.8001 -6.5064 -15.8042 6.2459 3.8854 50.5971 1.7518 -0.0784 -4.4750 0.0000 0.0000 -0.0000
0.7242 38.7714 75.0101 179.0120 47.9208 171.3340 0.0000 0.0000 0.0000 3.5786 -0.2272 -3.0323 3.6622 7.7959 23.4838 -6.2846 -0.0404 -11.3207 0.0000 -0.0000 -0.0000 0.0000 0.0000 0.0000 4.8133 2.9033 10.8363 -1.4631 3.4576 -2.9340 -0.0000 0.0000 -0.0000 -0.4931 12.7926 -0.1359 -0.0000 0.0000 -0.0000 -34.4765 -2.4545 2.4140 -44.8902 -12.3429 -20.3470 -9.3496 5.2332 44.7622 12.8426 -4.2038 -1.0282 -0.0000 0.0000 -0.0000 34.7223 5.1203 3.5136 34.9278 7.8041 -11.1068 11.4873 7.2196 17.6209 -12.5487 1.4479 -0.7274 0.0000 0.0000 0.0000 3.4249 -7.9587 -16.8385 7.7542 5.9662 45.4782 2.1575 -0.0889 -5.0238 0.0000 0.0000 -0.0000
1.3720 38.8897 74.9886 178.4430 49.5688 170.8490 0.0000 0.0000 0.0000 3.9311 -0.2426 -1.4364 4.1079 9.2072 22.0493 -7.3826 -0.0255 -11.1037 0.0000 -0.0000 -0.0000 0.0000 0.0000 0.0000 4.3799 3.1934 10.6092 -1.0300 3.6736 -2.4718 -0.0000 0.0000 -0.0000 -0.6742 12.5955 0.1430 -0.0000 0.0000 -0.0000 -34.5584 -2.5211 2.4459 -44.2213 -12.8717 -20.0291 -9.4702 5.2023 45.8609 12.1346 -4.2742 -0.9759 -0.0000 0.0000 -0.0000 34.6472 5.1140 3.5044 35.4820 8.4970 -10.6873 11.5184 7.3783 16.7859 -12.4556 1.5141 -0.7285 0.0000 0.0000 0.0000 2.2697 -9.3286 -17.2149 8.2056 8.0049 38.9465 2.7582 -0.1243 -4.9618 0.0000 0.0000 -0.0000
